<?xml version="1.0" encoding="utf-8"?>
<!-- Generator: Adobe Illustrator 26.2.1, SVG Export Plug-In . SVG Version: 6.00 Build 0)  -->
<svg version="1.1" id="Layer_1" xmlns="http://www.w3.org/2000/svg" xmlns:xlink="http://www.w3.org/1999/xlink" x="0px" y="0px"
	 viewBox="0 0 773 577" style="enable-background:new 0 0 773 577;" xml:space="preserve">
<style type="text/css">
	.st0{fill:#2A266C;}
	.st1{fill:#FFFFFF;}
	.st2{fill:#D31216;}
	.st3{fill:#FFFFFF;stroke:#FFFFFF;stroke-width:14.5576;stroke-linecap:round;stroke-miterlimit:10;}
	.st4{fill:#FFFFFF;stroke:#FFFFFF;stroke-width:14.5576;stroke-miterlimit:10;}
	.st5{fill:#FFFFFF;stroke:#FFFFFF;stroke-width:0.45;stroke-miterlimit:10;}
</style>
<path class="st0" d="M734.74,253.62h-214.7V14.65c0-2.66,2.16-4.81,4.81-4.81h238.77v214.9
	C763.62,240.69,750.69,253.62,734.74,253.62z"/>
<path class="st0" d="M224.31,253.64H9.61V14.67c0-2.66,2.16-4.81,4.81-4.81h238.77v214.9C253.19,240.7,240.26,253.64,224.31,253.64z
	"/>
<path class="st0" d="M479.52,253.64h-214.7V14.67c0-2.66,2.16-4.81,4.81-4.81h238.77v214.9
	C508.41,240.7,495.48,253.64,479.52,253.64z"/>
<polygon class="st1" points="386.62,66.41 264.83,188.91 264.83,158.91 386.62,36.91 508.41,159.91 508.41,188.91 "/>
<path class="st2" d="M734.07,567.26H8.19V266.79h754.02v272.34C762.21,554.67,749.61,567.26,734.07,567.26z"/>
<path class="st1" d="M250.92,469.26c0,15.88-4.91,29.63-14.73,41.23c-9.82,11.61-23.51,20.5-41.08,26.67
	c-17.57,6.17-37.73,9.25-60.46,9.25c-6.35,0-14.14-0.34-23.36-1.01c-9.23-0.68-21.48-2.54-36.76-5.59
	c-15.28-3.05-31.19-7.58-47.72-13.56v-62.31c15.5,7.94,30.75,14.54,45.73,19.79c14.98,5.25,31.04,7.88,48.17,7.88
	c15.8,0,26.02-2.17,30.67-6.51c4.65-4.34,6.98-8.4,6.98-12.19c0-6.84-3.99-12.61-11.96-17.32c-7.97-4.7-19.57-9.56-34.77-14.57
	c-16.83-5.86-31.59-12.25-44.29-19.15c-12.7-6.9-23.07-15.55-31.11-25.93c-8.05-10.39-12.07-22.66-12.07-36.84
	c0-13.68,4.06-26.05,12.18-37.11c8.12-11.06,20.52-19.88,37.2-26.48c16.68-6.6,37.06-9.9,61.12-9.9c17.13,0,32.96,1.37,47.5,4.12
	c14.54,2.75,26.54,5.83,35.99,9.25c9.45,3.42,15.94,6.11,19.49,8.06v59.56c-12.55-7.45-26.54-14.11-41.97-19.98
	c-15.43-5.86-31.93-8.8-49.5-8.8c-11.52,0-19.86,1.83-25.02,5.5c-5.17,3.67-7.75,8.19-7.75,13.56c0,5.01,2.58,9.35,7.75,13.01
	c5.17,3.67,14.39,8.12,27.68,13.38c23.62,9.16,42.52,17.41,56.69,24.74s25.28,15.79,33.33,25.38
	C246.89,443.03,250.92,454.97,250.92,469.26z"/>
<path class="st1" d="M503.89,471.86c0,22.21-7.68,39.95-23.04,53.23C465.49,538.36,444.02,545,416.44,545H265.78V287.05H391.8
	c16.3,0,30.5,1.55,42.6,4.65c12.1,3.1,21.85,7.35,29.25,12.75c7.4,5.4,12.91,11.76,16.55,19.08c3.64,7.32,5.45,15.32,5.45,24.01
	c0,9.43-1.88,18.15-5.64,26.15s-8.44,14.58-14.01,19.73c-5.58,5.15-11.19,8.78-16.83,10.89c17.8,6.95,31.38,15.73,40.72,26.33
	C499.22,441.24,503.89,454.99,503.89,471.86z M412.11,361.31c0-12.41-4.14-20.66-12.41-24.75s-21.19-6.14-38.74-6.14H344.4v61.79
	h16.93c17.93,0,30.87-2.05,38.84-6.14C408.13,381.97,412.11,373.72,412.11,361.31z M424.9,468.7c0-22.09-16.17-33.13-48.52-33.13
	H344.4v66.07h31.97C408.72,501.64,424.9,490.66,424.9,468.7z"/>
<path class="st1" d="M744.9,368.2c0,9.55-1.65,18.89-4.95,28.01c-3.3,9.12-8.62,17.62-15.96,25.5
	c-7.34,7.88-17.26,14.27-29.76,19.17c-12.5,4.9-27.22,7.35-44.13,7.35h-51.13V545h-78V287.05H650.1c16.92,0,31.63,2.48,44.13,7.44
	c12.5,4.96,22.42,11.41,29.76,19.36c7.34,7.94,12.66,16.56,15.96,25.87C743.25,349.03,744.9,358.52,744.9,368.2z M665.4,368.57
	c0-12.28-3.64-20.69-10.92-25.22c-7.28-4.53-20.31-6.79-39.1-6.79h-16.42v62.16h16.8c12.94,0,22.89-0.81,29.86-2.42
	c6.97-1.61,12.01-4.59,15.12-8.93C663.84,383.02,665.4,376.76,665.4,368.57z"/>
<g>
	<path class="st1" d="M131.12,28.64c4.46,18.95,9.52,34.04,15.19,45.28c5.67,11.24,14.3,23.41,25.92,36.5l5.02,5.57
		c15.14,16.91,22.71,33.81,22.71,50.72c0,18.67-6.76,34.69-20.27,48.07c-13.51,13.38-29.7,20.06-48.56,20.06
		c-18.76,0-34.9-6.69-48.42-20.06c-13.51-13.38-20.27-29.4-20.27-48.07c0-16.9,7.57-33.81,22.71-50.72l5.02-5.57
		c11.61-13.1,20.25-25.26,25.92-36.5C121.74,62.69,126.75,47.59,131.12,28.64z"/>
</g>
<rect x="361.95" y="141.46" class="st3" width="46.91" height="67.94"/>
<polygon class="st4" points="456.61,103.09 456.61,42.79 425.88,42.79 425.88,75.14 "/>
<path class="st1" d="M607.53,9.91c2.66,0.55,9.91,3.09,12.53,4.05c2.61,0.95,5.34,1.78,7.93,2.5c6.23,1.73,15.11,4.17,15.11,4.17
	s7.29,2.16,11.02,3.42c4.06,1.37,8.21,2.48,12.3,3.8c4.86,1.56,14.67,4.4,14.67,4.4c0.86,0.34,1.96,0.11,2.95,0.11
	c10.5,0,20.99,0.04,31.49-0.04c1.38-0.01,2.7,0.18,3.78,0.84c1.86,1.14,2.52,3.14,2.66,5.2c0.15,2.11,0.08,5,0.08,7.15
	c-0.35,0.34,0,0.31-1.25,0.4c-42.43,0-85.01,0-127.69,0c0,65.94,0,131.76,0,197.72c0.21,0.06,0.54,0.22,0.88,0.23
	c5.49,0.07,5.5,0.04,9.92,2.3c3.2,1.64,6.33,3.41,9.55,5c1.86,0.92,3.44,1.84,5.32,2.6c-1.1,0-6.26,0.01-9.71,0c0,0-14.12,0-23.79,0
	l-13.84,0l-22.88-0.02c3.79-1.95,6.88-3.49,11.35-5.4c5.52-2.36,5.52-2.36,8.09-3.92c0.65-0.39,1.51-0.5,2.29-0.54
	c1.48-0.06,2.97-0.02,4.58-0.02V45.88H520.4v-10.6l2.93-2.93h11.34c13.45-8.16,24.6-14.3,38.1-22.49 M602.25,32.23
	c21.47,0,42.81,0,64.15,0c-1.49-0.9-5.36-2.17-5.67-2.26c-3.48-0.94-5.86-1.86-9.32-2.77c-4.96-1.3-9.79-3.03-14.79-4.18
	c0,0-7.29-2.3-10.95-3.4c-4.34-1.3-8.72-2.47-13.06-3.78c-3.11-0.93-9.28-2.91-9.28-2.91s-6.66-2.5-10.22-2.77v14.65
	c2.68,0,6.76,0,9.08,0 M574.9,12.48c-2.55,1.57-4.63,2.85-6.72,4.13c-2.19,1.34-4.35,2.72-6.57,4c-2.1,1.22-4.42,2.13-6.36,3.55
	c-2.09,1.54-4.6,2.44-6.49,4.16c-1.76,1.6-4.45,1.73-6.04,3.86h23.39v-7.43h8.79V12.48z"/>
<path class="st1" d="M706.55,73.84c4.6,2.61,8.74,4.97,12.81,7.28c0,6.34,0,12.42,0,18.74c-4.65,0-9.24,0-13.82,0
	c-4.49,0-8.99,0-13.5,0c-0.08-0.08-0.18-0.16-0.24-0.26c-0.06-0.1-0.11-0.22-0.11-0.32c-0.01-6.22,0-12.45,0-18.46
	c4.26-2.31,8.32-4.51,12.73-6.9c0-8.32,0-16.99,0-25.73c0.84,0,1.43,0,2.14,0C706.55,56.8,706.55,65.38,706.55,73.84z M710.73,78.73
	c-1.96-1.15-3.46-2.02-5.17-3.02c-1.79,0.88-3.68,1.82-6.12,3.02C703.45,78.73,706.86,78.73,710.73,78.73z"/>
<path class="st1" d="M551.23,70.98c-10.45,0-20.78,0-31.24,0c0-6.63,0-13.22,0-19.82c2.96-0.53,20.36-0.68,31.24-0.25
	C551.23,57.48,551.23,64.06,551.23,70.98z"/>
<path class="st5" d="M663.09,253.63l-0.96-109.71h14.4v13.19h23.28v-43.92h9.66v11.43h22.54v-11.34h9.79v11.68h21.79v9.96h-21.6
	v22.44h21.49v9.87h-21.44v22.38h21.55v9.12h-21.73v22.26h21.68c0,0,0.22,6.17-0.71,9.88l-0.69,0.02c0,0-13-0.03-20.04-0.03v21.79
	c0,0,0.56,1.1-10.12,0.98v-22.71h-22.25l0.07,22.44h-10.07v-22.44h-23v22.71H663.09z"/>
<g>
	<rect x="742.2" y="198.95" class="st0" width="21.42" height="21.86"/>
	<rect x="709" y="199.13" class="st0" width="21.42" height="21.86"/>
	<rect x="676.35" y="199.13" class="st0" width="21.42" height="21.86"/>
	<rect x="709" y="167.9" class="st0" width="21.42" height="21.86"/>
	<rect x="708.29" y="135.82" class="st0" width="21.42" height="21.86"/>
	<rect x="676.35" y="167.9" class="st0" width="21.42" height="21.86"/>
</g>
<rect x="572.15" y="9.74" class="st1" width="36.85" height="1.28"/>
<rect x="519.99" y="35.11" class="st1" width="42.85" height="10.77"/>
<rect x="519.99" y="50.65" class="st1" width="31.24" height="20.32"/>
<rect x="699.5" y="230.58" class="st1" width="10.53" height="23.18"/>
</svg>
